<svg width="0" height="0" class="hidden">
  <symbol viewBox="0 0 0 0" id="icons">
    <symbol viewBox="0 0 0 0" id="icons">
      <svg width="0" height="0">
        <symbol xmlns="http://www.w3.org/2000/svg" fill="none" viewBox="0 0 16 13" id="envelope">
          <path d="M14.5.988h-13c-.827 0-1.5.673-1.5 1.5v8.997c0 .827.673 1.5 1.5 1.5h13c.827 0 1.5-.673 1.5-1.5V2.488c0-.827-.673-1.5-1.5-1.5Zm0 1c.068 0 .133.014.192.039L8 7.824 1.308 2.027a.498.498 0 0 1 .192-.039h13Zm0 9.997h-13a.5.5 0 0 1-.5-.5V3.083l6.672 5.78a.5.5 0 0 0 .656 0L15 3.084v8.402a.5.5 0 0 1-.5.5Z" fill="currentColor"></path>
        </symbol>
        <symbol xmlns="http://www.w3.org/2000/svg" fill="none" viewBox="0 0 10 16" id="smartphone">
          <path d="M8.5 0h-7C.673 0 0 .673 0 1.5v13c0 .827.673 1.5 1.5 1.5h7c.827 0 1.5-.673 1.5-1.5v-13C10 .673 9.327 0 8.5 0Zm-7 1h7a.5.5 0 0 1 .5.5V12H1V1.5a.5.5 0 0 1 .5-.5Zm7 14h-7a.5.5 0 0 1-.5-.5V13h8v1.5a.5.5 0 0 1-.5.5Z" fill="currentColor"></path>
          <path d="M2.354 13.739a.445.445 0 0 1 0 .66.526.526 0 0 1-.708 0 .445.445 0 0 1 0-.66.525.525 0 0 1 .708 0Z" fill="currentColor"></path>
        </symbol>
        <symbol xmlns="http://www.w3.org/2000/svg" fill="none" viewBox="0 0 70 70" id="clock">
          <g clip-path="url(#a)">
            <path fill="#212121" d="M68.461 33.471C68.458 14.982 53.466-.004 34.975 0 16.485.004 1.5 14.996 1.504 33.486A33.479 33.479 0 0 0 24.799 65.37c.133.042.27.063.41.063.263 0 .521-.071.748-.205.296-.175.516-.453.62-.78l8.454-26.797a4.184 4.184 0 1 0-1.837-7.95L22.025 18.53a1.395 1.395 0 0 0-1.972 1.973l11.163 11.176a4.104 4.104 0 0 0 1.173 5.051l-8.055 25.535C8.414 56.4.262 38.74 6.126 22.82 11.991 6.9 29.65-1.252 45.571 4.613c15.92 5.864 24.072 23.524 18.207 39.444A30.72 30.72 0 0 1 47.455 61.5l-.87-4.1a1.394 1.394 0 0 0-2.294-.752l-8.393 7.494a1.394 1.394 0 0 0 .505 2.372l10.716 3.42a1.394 1.394 0 0 0 1.791-1.619l-.855-4.022a33.37 33.37 0 0 0 20.406-30.82Zm-33.478-1.394a1.395 1.395 0 1 1 0 2.79 1.395 1.395 0 0 1 0-2.79Zm4.594 32.515 4.778-4.262 1.319 6.213-6.097-1.951Z"></path>
            <path fill="#2196F3" d="M33.588 6.967v2.79a1.395 1.395 0 1 0 2.79 0v-2.79a1.395 1.395 0 0 0-2.79 0ZM8.479 32.077a1.395 1.395 0 0 0 0 2.79h2.79a1.395 1.395 0 1 0 0-2.79h-2.79ZM61.486 34.867a1.395 1.395 0 1 0 0-2.79h-2.79a1.395 1.395 0 0 0 0 2.79h2.79Z"></path>
          </g>
          <defs>
            <clipPath id="a">
              <path fill="#fff" d="M0 0h70v70H0z"></path>
            </clipPath>
          </defs>
        </symbol>
        <symbol xmlns="http://www.w3.org/2000/svg" fill="none" viewBox="0 0 20 20" id="instagram">
          <g clip-path="url(#a)">
            <path d="M19.98 5.88c-.046-1.063-.218-1.793-.464-2.426a4.88 4.88 0 0 0-1.157-1.774 4.922 4.922 0 0 0-1.77-1.153C15.952.281 15.226.11 14.163.063 13.093.012 12.753 0 10.037 0 7.322 0 6.982.012 5.915.059 4.853.105 4.122.277 3.49.523A4.88 4.88 0 0 0 1.715 1.68 4.924 4.924 0 0 0 .563 3.45C.316 4.087.145 4.813.098 5.876c-.051 1.07-.063 1.41-.063 4.126 0 2.715.012 3.055.059 4.122.047 1.063.219 1.793.465 2.426a4.932 4.932 0 0 0 1.156 1.774c.5.508 1.106.902 1.77 1.152.637.247 1.364.419 2.426.465 1.067.047 1.407.059 4.122.059 2.716 0 3.056-.012 4.122-.059 1.063-.046 1.793-.218 2.426-.464a5.116 5.116 0 0 0 2.927-2.927c.246-.637.418-1.364.465-2.426.047-1.067.058-1.407.058-4.122s-.004-3.055-.05-4.122Zm-1.8 8.166c-.044.977-.208 1.504-.344 1.856a3.318 3.318 0 0 1-1.9 1.898c-.35.137-.882.301-1.855.344-1.055.047-1.371.059-4.04.059-2.668 0-2.989-.012-4.04-.059-.977-.043-1.504-.207-1.856-.344a3.077 3.077 0 0 1-1.148-.746 3.11 3.11 0 0 1-.747-1.148c-.136-.352-.3-.883-.343-1.856-.047-1.055-.059-1.372-.059-4.04 0-2.669.012-2.99.059-4.04.043-.977.207-1.504.343-1.856A3.04 3.04 0 0 1 3 2.965a3.105 3.105 0 0 1 1.15-.746c.35-.137.882-.3 1.855-.344 1.055-.046 1.372-.058 4.04-.058 2.672 0 2.989.012 4.04.058.977.043 1.504.207 1.856.344.433.16.828.414 1.148.746.332.325.586.715.747 1.15.136.35.3.882.343 1.855.047 1.055.059 1.371.059 4.04 0 2.668-.012 2.98-.059 4.036Z" fill="currentColor"></path>
            <path d="M10.037 4.864A5.139 5.139 0 0 0 4.9 10.002a5.139 5.139 0 0 0 10.276 0 5.139 5.139 0 0 0-5.138-5.138Zm0 8.47a3.333 3.333 0 1 1 .001-6.666 3.333 3.333 0 0 1 0 6.667ZM16.578 4.661a1.2 1.2 0 1 1-2.4 0 1.2 1.2 0 0 1 2.4 0Z" fill="currentColor"></path>
          </g>
          <defs>
            <clipPath id="a">
              <path fill="#fff" d="M0 0h20v20H0z"></path>
            </clipPath>
          </defs>
        </symbol>
        <symbol xmlns="http://www.w3.org/2000/svg" fill="none" viewBox="0 0 20 18" id="twitter">
          <path d="M20 2.799a8.549 8.549 0 0 1-2.363.647 4.077 4.077 0 0 0 1.804-2.266 8.192 8.192 0 0 1-2.6.992A4.099 4.099 0 0 0 9.75 4.976c0 .325.027.638.095.935-3.409-.166-6.425-1.8-8.451-4.288A4.128 4.128 0 0 0 .83 3.694c0 1.42.732 2.679 1.821 3.408A4.05 4.05 0 0 1 .8 6.598v.045a4.119 4.119 0 0 0 3.285 4.028 4.09 4.09 0 0 1-1.075.135c-.262 0-.527-.015-.776-.07.531 1.624 2.038 2.818 3.831 2.856a8.238 8.238 0 0 1-5.084 1.75A7.67 7.67 0 0 1 0 15.284a11.543 11.543 0 0 0 6.29 1.84c7.545 0 11.67-6.25 11.67-11.668 0-.18-.006-.356-.015-.53A8.179 8.179 0 0 0 20 2.8Z" fill="currentColor"></path>
        </symbol>
        <symbol xmlns="http://www.w3.org/2000/svg" fill="none" viewBox="0 0 20 20" id="facebook">
          <g clip-path="url(#a)">
            <path d="M13.33 3.32h1.827V.14a23.576 23.576 0 0 0-2.66-.14C9.864 0 8.06 1.656 8.06 4.7v2.8H5.156v3.555H8.06V20h3.562v-8.944h2.787l.443-3.555h-3.231V5.05c0-1.027.277-1.73 1.709-1.73Z" fill="currentColor"></path>
          </g>
          <defs>
            <clipPath id="a">
              <path fill="#fff" d="M0 0h20v20H0z"></path>
            </clipPath>
          </defs>
        </symbol>
        <symbol xmlns="http://www.w3.org/2000/svg" fill="none" viewBox="0 0 20 20" id="linkedin">
          <g clip-path="url(#a)">
            <path d="M19.995 20H20v-7.336c0-3.588-.772-6.352-4.967-6.352-2.017 0-3.37 1.106-3.923 2.156h-.058V6.647H7.074v13.352h4.142v-6.611c0-1.741.33-3.425 2.486-3.425 2.124 0 2.156 1.987 2.156 3.536V20h4.137ZM.33 6.647h4.147V20H.33V6.647ZM2.402 0A2.402 2.402 0 0 0 0 2.402c0 1.325 1.076 2.424 2.402 2.424 1.325 0 2.401-1.098 2.401-2.424A2.403 2.403 0 0 0 2.402 0Z" fill="currentColor"></path>
          </g>
          <defs>
            <clipPath id="a">
              <path fill="#fff" d="M0 0h20v20H0z"></path>
            </clipPath>
          </defs>
        </symbol>
        <symbol xmlns="http://www.w3.org/2000/svg" fill="none" viewBox="0 0 18 18" id="form-email">
          <g clip-path="url(#a)">
            <path fill="currentColor" d="M15 3H3c-.825 0-1.492.675-1.492 1.5l-.008 9c0 .825.675 1.5 1.5 1.5h12c.825 0 1.5-.675 1.5-1.5v-9c0-.825-.675-1.5-1.5-1.5Zm-.3 3.188L9.398 9.502a.759.759 0 0 1-.796 0L3.3 6.188a.637.637 0 1 1 .675-1.08L9 8.25l5.025-3.143a.637.637 0 1 1 .675 1.08Z"></path>
          </g>
          <defs>
            <clipPath id="a">
              <path fill="#fff" d="M0 0h18v18H0z"></path>
            </clipPath>
          </defs>
        </symbol>
        <symbol xmlns="http://www.w3.org/2000/svg" fill="none" viewBox="0 0 18 18" id="form-phone">
          <g clip-path="url(#a)">
            <path fill="currentColor" d="m13.996 11.123-1.838-.21a1.44 1.44 0 0 0-1.187.412l-1.332 1.332a10.888 10.888 0 0 1-4.769-4.77L6.21 6.55a1.44 1.44 0 0 0 .412-1.187l-.21-1.824a1.448 1.448 0 0 0-1.44-1.28H3.72c-.818 0-1.498.68-1.448 1.497.384 6.18 5.327 11.116 11.5 11.5.817.05 1.498-.63 1.498-1.448v-1.252a1.434 1.434 0 0 0-1.274-1.432Z"></path>
          </g>
          <defs>
            <clipPath id="a">
              <path fill="#fff" d="M0 0h18v18H0z"></path>
            </clipPath>
          </defs>
        </symbol>
        <symbol xmlns="http://www.w3.org/2000/svg" fill="none" viewBox="0 0 18 18" id="form-person">
          <g clip-path="url(#a)">
            <path fill="currentColor" d="M9 9a3 3 0 1 0 0-6 3 3 0 1 0 0 6Zm0 1.5c-2.003 0-6 1.005-6 3v.75c0 .412.337.75.75.75h10.5c.412 0 .75-.338.75-.75v-.75c0-1.995-3.998-3-6-3Z"></path>
          </g>
          <defs>
            <clipPath id="a">
              <path fill="#fff" d="M0 0h18v18H0z"></path>
            </clipPath>
          </defs>
        </symbol>
        <symbol xmlns="http://www.w3.org/2000/svg" fill="none" viewBox="0 0 24 24" id="send-paperplane">
          <path fill="#fff" d="M24 0 0 13.5l7.67 2.84L19.5 5.25l-8.998 12.14.007.002-.009-.002V24l4.301-5.018L20.251 21 24 0Z"></path>
        </symbol>
        <symbol xmlns="http://www.w3.org/2000/svg" fill="none" viewBox="0 0 13 10" id="checkmark">
          <path fill="#fff" stroke="#fff" stroke-width=".2" d="m1.957 4.752-.069-.066-.069.065-.888.842-.076.072.076.073 3.496 3.334.069.066.069-.066 7.504-7.158.076-.073-.076-.072-.882-.841-.069-.066-.069.066-6.553 6.246-2.539-2.422Z"></path>
        </symbol>
        <symbol xmlns="http://www.w3.org/2000/svg" fill="none" viewBox="0 0 24 16" id="menu-mobile">
          <path fill-rule="evenodd" clip-rule="evenodd" d="M0 2.66667V0H24V2.66667H0ZM0 9.33333H24V6.66667H0V9.33333ZM0 16H24V13.3333H0V16Z" fill="currentColor"></path>
        </symbol>
        <symbol xmlns="http://www.w3.org/2000/svg" fill="none" viewBox="0 0 330 330" id="form-lock" xml:space="preserve">
          <path d="M65 330h200c8.284 0 15-6.716 15-15V145c0-8.284-6.716-15-15-15h-15V85c0-46.869-38.131-85-85-85S80 38.131 80 85v45H65c-8.284 0-15 6.716-15 15v170c0 8.284 6.716 15 15 15zm115-95.014V255c0 8.284-6.716 15-15 15s-15-6.716-15-15v-20.014c-6.068-4.565-10-11.824-10-19.986 0-13.785 11.215-25 25-25s25 11.215 25 25c0 8.162-3.932 15.421-10 19.986zM110 85c0-30.327 24.673-55 55-55s55 24.673 55 55v45H110V85z" fill="currentColor"/>
        </symbol>
      </svg>
        <svg>
          <use href="#envelope"></use>
        </svg>
        <svg>
          <use href="#smartphone"></use>
        </svg>
        <svg>
          <use href="#clock"></use>
        </svg>
        <svg>
          <use href="#instagram"></use>
        </svg>
        <svg>
          <use href="#twitter"></use>
        </svg>
        <svg>
          <use href="#facebook"></use>
        </svg>
        <svg>
          <use href="#linkedin"></use>
        </svg>
        <svg>
          <use href="#form-email"></use>
        </svg>
        <svg>
          <use href="#form-phone"></use>
        </svg>
        <svg>
          <use href="#form-person"></use>
        </svg>
        <svg>
          <use href="#send-paperplane"></use>
        </svg>
        <svg>
          <use href="#checkmark"></use>
        </svg>
        <svg>
          <use href="#menu-mobile"></use>
        </svg>
        <svg>
          <use href="#form-lock"></use>
        </svg>
    </symbol>
  </symbol>
</svg>